<svg width="16" height="16" viewBox="0 0 16 16" fill="none" xmlns="http://www.w3.org/2000/svg">
<path d="M6.06 5.99998C6.21673 5.55442 6.5261 5.17872 6.9333 4.9394C7.3405 4.70009 7.81926 4.61261 8.28478 4.69245C8.7503 4.7723 9.17254 5.01433 9.47671 5.37567C9.78089 5.737 9.94737 6.19433 9.94666 6.66665C9.94666 7.99998 7.94666 8.66665 7.94666 8.66665M8 11.3333H8.00666M14.6667 7.99998C14.6667 11.6819 11.6819 14.6666 8 14.6666C4.3181 14.6666 1.33333 11.6819 1.33333 7.99998C1.33333 4.31808 4.3181 1.33331 8 1.33331C11.6819 1.33331 14.6667 4.31808 14.6667 7.99998Z" stroke="#9CA3AF" stroke-width="1.33333" stroke-linecap="round" stroke-linejoin="round"/>
</svg>
