<svg width="20" height="20" viewBox="0 0 20 20" fill="none" xmlns="http://www.w3.org/2000/svg">
<path d="M2.20769 14.578L2.73802 15.1083L2.73802 15.1083L2.20769 14.578ZM1.64282 18.3571H0.892822C0.892822 18.7714 1.22861 19.1071 1.64282 19.1071L1.64282 18.3571ZM4.85711 18.3571V19.1071C5.27132 19.1071 5.60711 18.7714 5.60711 18.3571H4.85711ZM4.85711 16.4286V15.6786C4.44289 15.6786 4.10711 16.0144 4.10711 16.4286H4.85711ZM6.78568 16.4286V17.1786C7.19989 17.1786 7.53568 16.8428 7.53568 16.4286H6.78568ZM6.78568 14.5V13.75C6.37147 13.75 6.03568 14.0858 6.03568 14.5H6.78568ZM8.71425 14.5V15.25C8.91316 15.25 9.10393 15.171 9.24458 15.0303L8.71425 14.5ZM12.3325 11.8533L12.4602 11.1142L12.3325 11.8533ZM8.14669 7.66746L7.40764 7.79515L8.14669 7.66746ZM7.77825 9.00742L7.24792 8.47709L7.77825 9.00742ZM13.2143 3.46428C12.8 3.46428 12.4643 3.80007 12.4643 4.21428C12.4643 4.62849 12.8 4.96428 13.2143 4.96428V3.46428ZM15.0357 6.78571C15.0357 7.19992 15.3715 7.53571 15.7857 7.53571C16.1999 7.53571 16.5357 7.19992 16.5357 6.78571H15.0357ZM17.6071 6.78571C17.6071 9.21182 15.6404 11.1786 13.2143 11.1786V12.6786C16.4688 12.6786 19.1071 10.0402 19.1071 6.78571H17.6071ZM13.2143 2.39285C15.6404 2.39285 17.6071 4.3596 17.6071 6.78571H19.1071C19.1071 3.53117 16.4688 0.892853 13.2143 0.892853V2.39285ZM8.82139 6.78571C8.82139 4.3596 10.7881 2.39285 13.2143 2.39285V0.892853C9.95972 0.892853 7.32139 3.53117 7.32139 6.78571H8.82139ZM8.88574 7.53976C8.8435 7.29526 8.82139 7.04337 8.82139 6.78571H7.32139C7.32139 7.12933 7.35088 7.46666 7.40764 7.79515L8.88574 7.53976ZM7.24792 8.47709L1.67736 14.0477L2.73802 15.1083L8.30858 9.53775L7.24792 8.47709ZM1.67736 14.0477C1.17503 14.55 0.892822 15.2313 0.892822 15.9417H2.39282C2.39282 15.6291 2.51699 15.3293 2.73802 15.1083L1.67736 14.0477ZM0.892822 15.9417V18.3571H2.39282V15.9417H0.892822ZM1.64282 19.1071H4.85711V17.6071H1.64282V19.1071ZM5.60711 18.3571V16.4286H4.10711V18.3571H5.60711ZM4.85711 17.1786H6.78568V15.6786H4.85711V17.1786ZM7.53568 16.4286V14.5H6.03568V16.4286H7.53568ZM6.78568 15.25H8.71425V13.75H6.78568V15.25ZM13.2143 11.1786C12.9566 11.1786 12.7047 11.1565 12.4602 11.1142L12.2048 12.5923C12.5333 12.6491 12.8706 12.6786 13.2143 12.6786V11.1786ZM9.24458 15.0303L11.5229 12.752L10.4622 11.6914L8.18392 13.9697L9.24458 15.0303ZM12.4602 11.1142C11.8035 11.0008 11.0234 11.1302 10.4622 11.6914L11.5229 12.752C11.6543 12.6206 11.8964 12.539 12.2048 12.5923L12.4602 11.1142ZM7.40764 7.79515C7.46093 8.10359 7.37932 8.3457 7.24792 8.47709L8.30858 9.53775C8.86978 8.97655 8.99921 8.19649 8.88574 7.53976L7.40764 7.79515ZM13.2143 4.96428C14.2202 4.96428 15.0357 5.77976 15.0357 6.78571H16.5357C16.5357 4.95134 15.0486 3.46428 13.2143 3.46428V4.96428Z" fill="#7C3AED"/>
</svg>
